<svg xmlns="http://www.w3.org/2000/svg" viewBox="0 0 360.98 140.31"><defs><style>.cls-1{fill:#444242;}</style></defs><title>Asset 2</title><g id="Layer_2" data-name="Layer 2"><g id="TEXT"><path class="cls-1" d="M72.5,100.63l-.87.43c-.29-.14-.58-.14-.72.14a.76.76,0,0,1,.14,1.15c-1.73,2.17-4.91,2.74-6.79,4.62-1,1-1.16,1.59-2.31,2.74-.43.43-1.16.43-1.59.72a18.31,18.31,0,0,0-3.61,3,102.66,102.66,0,0,0-7.65,9.38c-4.19,6.06-16.17,21.08-24,11.55-4.33-5.34,2.17-6.64,5.05-9.53,2.31-2.31,4.19-5.05,6.64-7.36a42.08,42.08,0,0,0,3.75-4.76L41,112c-.87,1,0-1.3,0-1.44A21.58,21.58,0,0,1,42.9,107a18.2,18.2,0,0,0,2.31-6.06c.14-1.44.43-4.48-1.44-4.91C43.19,96,38,97.89,38,97.89s.72-.58.58-.87A18.78,18.78,0,0,0,36,99.19.53.53,0,0,1,36.4,99c-1.15.58-10.54,13-11.26,14.15-1.73,2.89-3,6.21-5.2,8.66-.43.29-.72.43-1,.29a1.58,1.58,0,0,0-.58,1.73,37,37,0,0,0-1.59,3.46c-1.3,2.6-1.88,6.5-3.32,8.81-1.73,2.89-5.05,2-7.51.29a9.94,9.94,0,0,1-3-3.46,12.74,12.74,0,0,1-.72-2.17,6.26,6.26,0,0,1-.72-1.73,11.74,11.74,0,0,1,.14,1.3c-2.6-1-1.3-11.26-1.16-13.14a135.36,135.36,0,0,1,3.9-22.67A245.58,245.58,0,0,1,16.48,57.18C20.81,46.64,25.14,36,30.77,26A102.87,102.87,0,0,1,41.31,9.53C44.78,5.34,49.69-.14,55.75,0c11.69.58,11.69,17,10,25.27,0,0,.14,3-.58,3.61A23.34,23.34,0,0,0,65.57,26l-.87,3.46a.27.27,0,0,1,.43,0c.43,2-1.59,5.63-2.31,7.36a66.24,66.24,0,0,1-3.75,7.07c-2.17,4-4.76,7.94-7.07,12a63.73,63.73,0,0,1-9.38,12c-.72.87-8.81,9.38-9.82,8.66a15.83,15.83,0,0,0,1.44-1.59c-1.88,1.59-3.75,3.32-5.78,4.91a10.39,10.39,0,0,0,1-.58c-1.59,2.6-6.06,2.89-7.51,5.49-1.88,3.18-2.31,8.52-3,12.13-1.73,7.65-3.18,15.45-4.33,23.25l.29-.72-.58,2.31a77.48,77.48,0,0,1,8.52-13c-1.44,1.59-3.18,3.46-4.76,5.49a108.5,108.5,0,0,1,9.53-12c4-4.33,8.81-9.82,14.44-12.42,2-.87,4-1.44,6.21-.72,5.63,1.73,6.35,7.65,6.64,12.27a2.14,2.14,0,0,1,.29-1.3c.43-.29.43,7.51.29,8.23a129.58,129.58,0,0,0,11.69-8.09c1.73-1.3,4.33-5.2,6.06-2.74h.14v.14C74.23,99,73.22,99.62,72.5,100.63ZM18.07,114.21l-3,5.05A26.09,26.09,0,0,1,18.07,114.21ZM15.9,62.37A191.9,191.9,0,0,1,29.47,33.07,209.92,209.92,0,0,1,40.73,15c3-4.19,6.5-8.66,11.55-10.39C47.09,6.36,42.9,11,40,14.87a117.55,117.55,0,0,0-11.26,18A230.24,230.24,0,0,0,15.9,62.37Zm9.38,9.53L26,69.3l-1.88,5.92v.14a.53.53,0,0,0-.14.43c0,.29-.14.43-.14.58l-.14.29V77C24.56,76.23,25,73.06,25.28,71.9Zm-1.44,4.62-.14.14V77C23.7,76.81,23.84,76.67,23.84,76.52ZM55.6,7.08C56,6.79,57,6.5,57.19,6.79c-.29-.43-5.92,5.92-7.36,7.65L51.71,11C48,15.74,45.35,21.08,42.9,26.42a2.46,2.46,0,0,1,.87-.87c-1.15,1-9.53,23-10.4,25C30,59.05,27,67.72,24.42,76.38A112,112,0,0,0,42.32,59.2c4-5.05,8.23-10.68,12-15.59,1.88-2.45,3-7.07,4-10.11a44.51,44.51,0,0,0,2.74-12.27c.14-2.6.72-14.73-3.9-14.73A2.17,2.17,0,0,0,55.6,7.08ZM26.87,103.67a.14.14,0,0,0,.14-.14Zm19.92-3a42.05,42.05,0,0,1-5.49,12.13c-2.45,3.46-4.91,6.79-7.51,10.11-1.88,2.17-3.32,4.33-5.2,5.49,3.61-2,7.22-6.21,9.67-9.53C41.74,113.48,45.79,107.13,46.8,100.63ZM37.27,39.42c-2.45,5.92-4.76,12-7.07,18Z"/><path class="cls-1" d="M132.56,107.57a106.94,106.94,0,0,1-6.35,12.13A109.58,109.58,0,0,1,117.54,132c-2.6,3.32-6.21,7.51-10.54,8.23-4.91.87-8.81-3.18-10.4-7.51-3.46-8.52-1-17.47,1.59-25.7a19.63,19.63,0,0,1,.14-2.31c-1.44,2.17-3.47,4.76-4.76,6.79-1.73,2.74-3,5.49-4.91,8.09-.87,1.3-12.71,15.59-14.29,13.14,0,0,1.73-.72,1.59-1a7.45,7.45,0,0,1-6.06.87c.43.29.72.43.58.43-3.32.43-5.92-4.76-6.64-7.07-1.15-4-.87-8.52-.14-12.56a67.93,67.93,0,0,1,10-24.69c1.3-1.73,2.6-3.75,4.48-5.05,1.16-1,2.17-1.16,3.47-2,2.17-1.88,4-3.46,7.22-3.46,7.07,0,10,8.08,11.41,13.57,3.46-4.48,9.67-10.39,15-3.9,2.89,3.46,1,6.06-.58,9.24a66.84,66.84,0,0,0-6.06,16.46c.14-.43.58-2.6,1.15-2.74,1.16-.29-9.24,32.34,5.63,14,4.48-5.63,8.37-11.55,12.27-17.47,1.73-2.74,3.47-5.63,5.34-8.37.87-1.16,3.46-3.9,3.61-.72S133.71,104.82,132.56,107.57ZM95.89,96.88c0-1.15-2.89-9.1-2.17-9.67.14-.14,1.44,4,1.59,4.33-.43-1.73-1-7.07-3.61-7.07-4.76,0-8.37,8.81-10,12.13a85.12,85.12,0,0,0-6.64,20.5c.43-2.17,8.81-28.3,11.41-28.15-2,.43-9.67,22.67-10.11,24.69-.29,1.16-2.6,8.66-.43,9.38,1.44.43,4.91-4,5.63-5.05q4.11-5,7.8-10.39l3.75-5.34c.58-1,1.3-2,2-3A3,3,0,0,0,95.89,96.88Zm.43-1v1.44C96.75,96.88,96.75,96.45,96.32,95.87Zm3.47,6.93-.72,1c-.14.43-.58,2.45-.58,2.45Z"/><path class="cls-1" d="M179.19,109.3c-3.18,4-6.06,8.37-9.53,12.13-2.6,2.74-6.93,7.36-11,6.06-.87-.29-6.21-3.18-6.06-3.9l.43.29-.87-.87c.72,1.16-.87-.29-1-.29a11,11,0,0,1-1.73-2.74,11.14,11.14,0,0,1-.87-4.76c0-1.59.29-3.18.43-4.76a41,41,0,0,1,1.44-9.38c.29-.72,3.32-8.81,4.33-8.52.29,0-.43,1-.29,1.15l2-4c-.29.29-.43.58-.72.72A29.48,29.48,0,0,1,158,86.2c-2.89,3.32-5.2,6.79-7.8,10.25-1.88,2.45-4.19,4-5.49,6.35-3,5.2-6.79,10-9.24,15.3l-.58-1.16c-2.6,3.18-6.5-.58-7.94-3s-.87-4-.58-6.64c.29-2.31.14-4.62.87-7.07.87-3,2-5.92,3.18-9s2-6.06,3.18-9.1c.72-1.88,2.17-4.19,2.6-6.21.43-1.59,0-2.6,1.88-3.75s3.61-.87,5.49-.58c2.31.43,6.5,2.89,4,6.5-1,1.3-2.74,2.74-3.9,4.19s-1.16,2.31-1.73,4.19c-.29,1.15-1.44,2.17-2,3.32a30.81,30.81,0,0,0-2,5.49,23.66,23.66,0,0,0-.29,3.18c-.29,3-1.3,6.06-1.59,9.1.14-.58,1.16-1.59,1.3-1.44s-1.44,2.6-1.3,2.6l8.52-12.42c-1.88,2.45-3.32,4.19-3.32,4.19C140.79,100.2,158,78.26,160,76.38c4.19-3.9,9.53-3.75,11.55,3,2.31,7.22-5.2,12-8.66,17.18A83,83,0,0,0,158,106c-1,1.88-3.18,6.06-3.47,9.24.29-2.17,1.88-4.76,2.45-6.21a19.72,19.72,0,0,1,5.05-7.65c-1,1.88-2.17,3.61-3,5.34l.72-.87c.29,0-1.3,4.91-1.44,5.2a23.41,23.41,0,0,0-1.3,5.49,13.89,13.89,0,0,0,0,2.45l.14.14c0-.14,1-.29,1.3-.43,2.17-.72,4.33-2.74,6.06-4.19,3.46-2.74,6.79-5.78,10.11-8.66,2.45-2.31,5.63-4.62,7.65-7.07.87-1.3,2.89-3.61,3.61-.14S180.93,107,179.19,109.3Z"/><path class="cls-1" d="M244.74,107.57a106.82,106.82,0,0,1-6.35,12.13A109.63,109.63,0,0,1,229.73,132c-2.6,3.32-6.21,7.51-10.54,8.23-4.91.87-8.81-3.18-10.4-7.51-3.46-8.52-1-17.47,1.59-25.7a19.75,19.75,0,0,1,.14-2.31c-1.44,2.17-3.46,4.76-4.76,6.79-1.73,2.74-3,5.49-4.91,8.09-.87,1.3-12.71,15.59-14.29,13.14,0,0,1.73-.72,1.59-1a7.45,7.45,0,0,1-6.06.87c.43.29.72.43.58.43-3.32.43-5.92-4.76-6.64-7.07-1.15-4-.87-8.52-.14-12.56a67.93,67.93,0,0,1,10-24.69c1.3-1.73,2.6-3.75,4.48-5.05,1.16-1,2.17-1.16,3.47-2,2.16-1.88,4-3.46,7.22-3.46,7.07,0,10,8.08,11.41,13.57,3.47-4.48,9.67-10.39,15-3.9,2.89,3.46,1,6.06-.58,9.24a66.86,66.86,0,0,0-6.06,16.46c.14-.43.58-2.6,1.16-2.74,1.16-.29-9.24,32.34,5.63,14,4.48-5.63,8.37-11.55,12.27-17.47,1.73-2.74,3.46-5.63,5.34-8.37.87-1.16,3.46-3.9,3.61-.72S245.9,104.82,244.74,107.57ZM208.07,96.88c0-1.15-2.89-9.1-2.17-9.67.14-.14,1.44,4,1.59,4.33-.43-1.73-1-7.07-3.61-7.07-4.76,0-8.37,8.81-10,12.13a85.07,85.07,0,0,0-6.64,20.5c.43-2.17,8.81-28.3,11.41-28.15-2,.43-9.67,22.67-10.11,24.69-.29,1.16-2.6,8.66-.43,9.38,1.44.43,4.91-4,5.63-5.05q4.11-5,7.8-10.39l3.75-5.34c.58-1,1.3-2,2-3A3,3,0,0,0,208.07,96.88Zm.43-1v1.44C208.94,96.88,208.94,96.45,208.5,95.87ZM212,102.8l-.72,1c-.14.43-.58,2.45-.58,2.45Z"/><path class="cls-1" d="M291.38,109.3c-3.18,4-6.06,8.37-9.53,12.13-2.6,2.74-6.93,7.36-11,6.06-.87-.29-6.21-3.18-6.06-3.9l.43.29-.87-.87c.72,1.16-.87-.29-1-.29a11,11,0,0,1-1.73-2.74,11.12,11.12,0,0,1-.87-4.76c0-1.59.29-3.18.43-4.76a41,41,0,0,1,1.44-9.38c.29-.72,3.32-8.81,4.33-8.52.29,0-.43,1-.29,1.15l2-4c-.29.29-.43.58-.72.72a29.52,29.52,0,0,1,2.16-4.19c-2.89,3.32-5.2,6.79-7.8,10.25-1.88,2.45-4.19,4-5.49,6.35-3,5.2-6.79,10-9.24,15.3l-.58-1.16c-2.6,3.18-6.5-.58-7.94-3s-.87-4-.58-6.64c.29-2.31.14-4.62.87-7.07.87-3,2-5.92,3.18-9s2-6.06,3.18-9.1c.72-1.88,2.17-4.19,2.6-6.21.43-1.59,0-2.6,1.88-3.75s3.61-.87,5.49-.58c2.31.43,6.5,2.89,4,6.5-1,1.3-2.74,2.74-3.9,4.19s-1.16,2.31-1.73,4.19c-.29,1.15-1.44,2.17-2,3.32a30.86,30.86,0,0,0-2,5.49,23.58,23.58,0,0,0-.29,3.18c-.29,3-1.3,6.06-1.59,9.1.14-.58,1.16-1.59,1.3-1.44s-1.44,2.6-1.3,2.6l8.52-12.42c-1.88,2.45-3.32,4.19-3.32,4.19-.43-.29,16.75-22.23,18.77-24.11,4.19-3.9,9.53-3.75,11.55,3,2.31,7.22-5.2,12-8.66,17.18a83.05,83.05,0,0,0-4.91,9.38c-1,1.88-3.18,6.06-3.46,9.24.29-2.17,1.88-4.76,2.45-6.21a19.72,19.72,0,0,1,5.05-7.65c-1,1.88-2.17,3.61-3,5.34l.72-.87c.29,0-1.3,4.91-1.44,5.2a23.36,23.36,0,0,0-1.3,5.49,13.89,13.89,0,0,0,0,2.45l.14.14c0-.14,1-.29,1.3-.43,2.17-.72,4.33-2.74,6.06-4.19,3.47-2.74,6.79-5.78,10.11-8.66,2.46-2.31,5.63-4.62,7.65-7.07.87-1.3,2.89-3.61,3.61-.14S293.11,107,291.38,109.3Z"/><path class="cls-1" d="M356.92,107.57a107,107,0,0,1-6.35,12.13A109.51,109.51,0,0,1,341.91,132c-2.6,3.32-6.21,7.51-10.54,8.23-4.91.87-8.81-3.18-10.4-7.51-3.47-8.52-1-17.47,1.59-25.7a19.63,19.63,0,0,1,.14-2.31c-1.44,2.17-3.46,4.76-4.76,6.79-1.73,2.74-3,5.49-4.91,8.09-.87,1.3-12.71,15.59-14.29,13.14,0,0,1.73-.72,1.59-1a7.45,7.45,0,0,1-6.06.87c.43.29.72.43.58.43-3.32.43-5.92-4.76-6.64-7.07-1.16-4-.87-8.52-.14-12.56a67.94,67.94,0,0,1,10-24.69c1.3-1.73,2.6-3.75,4.48-5.05,1.16-1,2.17-1.16,3.46-2,2.17-1.88,4-3.46,7.22-3.46,7.08,0,10,8.08,11.41,13.57,3.46-4.48,9.67-10.39,15-3.9,2.89,3.46,1,6.06-.58,9.24A66.86,66.86,0,0,0,333,113.48c.14-.43.58-2.6,1.16-2.74,1.15-.29-9.24,32.34,5.63,14,4.48-5.63,8.37-11.55,12.27-17.47,1.73-2.74,3.46-5.63,5.34-8.37.87-1.16,3.47-3.9,3.61-.72S358.08,104.82,356.92,107.57ZM320.25,96.88c0-1.15-2.89-9.1-2.17-9.67.14-.14,1.44,4,1.59,4.33-.43-1.73-1-7.07-3.61-7.07-4.76,0-8.37,8.81-10,12.13a85.12,85.12,0,0,0-6.64,20.5c.43-2.17,8.81-28.3,11.41-28.15-2,.43-9.67,22.67-10.11,24.69-.29,1.16-2.6,8.66-.43,9.38,1.44.43,4.91-4,5.63-5.05q4.11-5,7.8-10.39l3.75-5.34c.58-1,1.3-2,2-3A3,3,0,0,0,320.25,96.88Zm.43-1v1.44C321.12,96.88,321.12,96.45,320.68,95.87Zm3.46,6.93-.72,1c-.14.43-.58,2.45-.58,2.45Z"/></g></g></svg>